0
SECTION
2
HEADER
9
$ACADVER
1
AC1009
9
$INSUNITS
70
4
9
$MEASUREMENT
70
1
0
ENDSEC
0
SECTION
2
TABLES
0
TABLE
2
LAYER
70
1
0
LAYER
2
0
70
0
62
7
6
CONTINUOUS
0
ENDTAB
0
ENDSEC
0
SECTION
2
ENTITIES
0
POLYLINE
8
0
66
1
70
1
0
VERTEX
8
0
10
6.0000
20
0.0000
30
0.0
0
VERTEX
8
0
10
360.2000
20
0.0000
30
0.0
0
VERTEX
8
0
10
360.2000
20
334.8000
30
0.0
0
VERTEX
8
0
10
0.0000
20
334.8000
30
0.0
0
VERTEX
8
0
10
0.0000
20
6.0000
30
0.0
0
VERTEX
8
0
10
6.0000
20
6.0000
30
0.0
0
SEQEND
8
0
0
CIRCLE
8
0
10
15.0000
20
15.0000
30
0.0
40
2.2500
0
CIRCLE
8
0
10
345.2000
20
15.0000
30
0.0
40
2.2500
0
CIRCLE
8
0
10
345.2000
20
319.8000
30
0.0
40
2.2500
0
CIRCLE
8
0
10
15.0000
20
319.8000
30
0.0
40
2.2500
0
CIRCLE
8
0
10
180.1000
20
15.0000
30
0.0
40
2.2500
0
CIRCLE
8
0
10
180.1000
20
319.8000
30
0.0
40
2.2500
0
CIRCLE
8
0
10
15.0000
20
167.4000
30
0.0
40
2.2500
0
CIRCLE
8
0
10
345.2000
20
167.4000
30
0.0
40
2.2500
0
ENDSEC
0
EOF
